<svg xmlns="http://www.w3.org/2000/svg" xmlns:xlink="http://www.w3.org/1999/xlink" id="visual" viewBox="0 0 900 200" width="900" height="200" version="1.1"><rect x="0" y="0" width="900" height="200" fill="#065f46"/><path d="M0 128L21.5 128.7C43 129.3 86 130.7 128.8 130.2C171.7 129.7 214.3 127.3 257.2 127C300 126.7 343 128.3 385.8 130.5C428.7 132.7 471.3 135.3 514.2 138.2C557 141 600 144 642.8 145.5C685.7 147 728.3 147 771.2 144.5C814 142 857 137 878.5 134.5L900 132L900 201L878.5 201C857 201 814 201 771.2 201C728.3 201 685.7 201 642.8 201C600 201 557 201 514.2 201C471.3 201 428.7 201 385.8 201C343 201 300 201 257.2 201C214.3 201 171.7 201 128.8 201C86 201 43 201 21.5 201L0 201Z" fill="#009473"/><path d="M0 131L21.5 135C43 139 86 147 128.8 148.2C171.7 149.3 214.3 143.7 257.2 143.5C300 143.3 343 148.7 385.8 148.7C428.7 148.7 471.3 143.3 514.2 141.7C557 140 600 142 642.8 144.2C685.7 146.3 728.3 148.7 771.2 150.3C814 152 857 153 878.5 153.5L900 154L900 201L878.5 201C857 201 814 201 771.2 201C728.3 201 685.7 201 642.8 201C600 201 557 201 514.2 201C471.3 201 428.7 201 385.8 201C343 201 300 201 257.2 201C214.3 201 171.7 201 128.8 201C86 201 43 201 21.5 201L0 201Z" fill="#29a883"/><path d="M0 163L21.5 160C43 157 86 151 128.8 150.5C171.7 150 214.3 155 257.2 155.2C300 155.3 343 150.7 385.8 148.3C428.7 146 471.3 146 514.2 148.2C557 150.3 600 154.7 642.8 156C685.7 157.3 728.3 155.7 771.2 156.7C814 157.7 857 161.3 878.5 163.2L900 165L900 201L878.5 201C857 201 814 201 771.2 201C728.3 201 685.7 201 642.8 201C600 201 557 201 514.2 201C471.3 201 428.7 201 385.8 201C343 201 300 201 257.2 201C214.3 201 171.7 201 128.8 201C86 201 43 201 21.5 201L0 201Z" fill="#42bd94"/><path d="M0 175L21.5 175.8C43 176.7 86 178.3 128.8 179.2C171.7 180 214.3 180 257.2 178.2C300 176.3 343 172.7 385.8 169.7C428.7 166.7 471.3 164.3 514.2 163.7C557 163 600 164 642.8 164.8C685.7 165.7 728.3 166.3 771.2 167.8C814 169.3 857 171.7 878.5 172.8L900 174L900 201L878.5 201C857 201 814 201 771.2 201C728.3 201 685.7 201 642.8 201C600 201 557 201 514.2 201C471.3 201 428.7 201 385.8 201C343 201 300 201 257.2 201C214.3 201 171.7 201 128.8 201C86 201 43 201 21.5 201L0 201Z" fill="#58d2a5"/><path d="M0 177L21.5 177.3C43 177.7 86 178.3 128.8 178.7C171.7 179 214.3 179 257.2 178.3C300 177.7 343 176.3 385.8 178.2C428.7 180 471.3 185 514.2 185.5C557 186 600 182 642.8 179.3C685.7 176.7 728.3 175.3 771.2 176.5C814 177.7 857 181.3 878.5 183.2L900 185L900 201L878.5 201C857 201 814 201 771.2 201C728.3 201 685.7 201 642.8 201C600 201 557 201 514.2 201C471.3 201 428.7 201 385.8 201C343 201 300 201 257.2 201C214.3 201 171.7 201 128.8 201C86 201 43 201 21.5 201L0 201Z" fill="#6ee7b7"/></svg>