<svg xmlns="http://www.w3.org/2000/svg" xmlns:xlink="http://www.w3.org/1999/xlink" id="visual" viewBox="0 0 900 200" width="900" height="200" version="1.1"><rect x="0" y="0" width="900" height="200" fill="#065f46"/><path d="M0 84L129 65L257 98L386 64L514 61L643 76L771 98L900 87L900 0L771 0L643 0L514 0L386 0L257 0L129 0L0 0Z" fill="#098965"/><path d="M0 66L129 78L257 71L386 61L514 53L643 51L771 71L900 54L900 0L771 0L643 0L514 0L386 0L257 0L129 0L0 0Z" fill="#40a37e"/><path d="M0 49L129 39L257 52L386 43L514 50L643 63L771 63L900 61L900 0L771 0L643 0L514 0L386 0L257 0L129 0L0 0Z" fill="#64bd99"/><path d="M0 24L129 32L257 25L386 38L514 30L643 24L771 32L900 43L900 0L771 0L643 0L514 0L386 0L257 0L129 0L0 0Z" fill="#86d8b4"/><path d="M0 15L129 28L257 26L386 25L514 27L643 11L771 22L900 21L900 0L771 0L643 0L514 0L386 0L257 0L129 0L0 0Z" fill="#a7f3d0"/></svg>