<svg xmlns="http://www.w3.org/2000/svg" xmlns:xlink="http://www.w3.org/1999/xlink" id="visual" viewBox="0 0 900 900" width="900" height="900" version="1.1"><g stroke-width="1" stroke-linejoin="bevel"><path d="M399 383L434 331L318 337Z" fill="#63d8a5" stroke="#63d8a5"/><path d="M434 331L305 227L318 337Z" fill="#6ee7b7" stroke="#6ee7b7"/><path d="M224 399L264 404L318 337Z" fill="#1a7232" stroke="#1a7232"/><path d="M318 337L264 404L399 383Z" fill="#63d8a5" stroke="#63d8a5"/><path d="M516 363L505 285L434 331Z" fill="#43ab72" stroke="#43ab72"/><path d="M434 331L477 215L305 227Z" fill="#63d8a5" stroke="#63d8a5"/><path d="M399 383L516 363L434 331Z" fill="#258041" stroke="#258041"/><path d="M505 285L477 215L434 331Z" fill="#005712" stroke="#005712"/><path d="M164 288L224 399L318 337Z" fill="#005712" stroke="#005712"/><path d="M477 215L374 160L305 227Z" fill="#43ab72" stroke="#43ab72"/><path d="M278 107L218 226L305 227Z" fill="#1a7232" stroke="#1a7232"/><path d="M305 227L218 226L318 337Z" fill="#4eb982" stroke="#4eb982"/><path d="M229 475L307 512L264 404Z" fill="#005712" stroke="#005712"/><path d="M264 404L307 512L399 383Z" fill="#1a7232" stroke="#1a7232"/><path d="M399 383L517 503L516 363Z" fill="#58c894" stroke="#58c894"/><path d="M516 363L570 269L505 285Z" fill="#005712" stroke="#005712"/><path d="M505 285L570 269L477 215Z" fill="#2f8e51" stroke="#2f8e51"/><path d="M224 399L229 475L264 404Z" fill="#58c894" stroke="#58c894"/><path d="M307 512L424 539L399 383Z" fill="#258041" stroke="#258041"/><path d="M516 363L638 408L570 269Z" fill="#399c61" stroke="#399c61"/><path d="M218 226L164 288L318 337Z" fill="#2f8e51" stroke="#2f8e51"/><path d="M224 399L95 402L229 475Z" fill="#399c61" stroke="#399c61"/><path d="M424 539L517 503L399 383Z" fill="#6ee7b7" stroke="#6ee7b7"/><path d="M477 215L413 101L374 160Z" fill="#6ee7b7" stroke="#6ee7b7"/><path d="M374 160L278 107L305 227Z" fill="#399c61" stroke="#399c61"/><path d="M500 66L413 101L477 215Z" fill="#0e6422" stroke="#0e6422"/><path d="M413 101L278 107L374 160Z" fill="#63d8a5" stroke="#63d8a5"/><path d="M88 232L107 317L164 288Z" fill="#2f8e51" stroke="#2f8e51"/><path d="M229 475L312 574L307 512Z" fill="#258041" stroke="#258041"/><path d="M307 512L371 596L424 539Z" fill="#58c894" stroke="#58c894"/><path d="M312 574L371 596L307 512Z" fill="#2f8e51" stroke="#2f8e51"/><path d="M489 606L560 523L517 503Z" fill="#43ab72" stroke="#43ab72"/><path d="M489 606L517 503L424 539Z" fill="#399c61" stroke="#399c61"/><path d="M517 503L638 408L516 363Z" fill="#4eb982" stroke="#4eb982"/><path d="M88 232L164 288L218 226Z" fill="#258041" stroke="#258041"/><path d="M164 288L107 317L224 399Z" fill="#005712" stroke="#005712"/><path d="M560 523L638 408L517 503Z" fill="#258041" stroke="#258041"/><path d="M709 272L631 218L570 269Z" fill="#6ee7b7" stroke="#6ee7b7"/><path d="M570 269L631 218L477 215Z" fill="#6ee7b7" stroke="#6ee7b7"/><path d="M107 317L95 402L224 399Z" fill="#63d8a5" stroke="#63d8a5"/><path d="M229 475L202 617L312 574Z" fill="#1a7232" stroke="#1a7232"/><path d="M584 81L500 66L477 215Z" fill="#0e6422" stroke="#0e6422"/><path d="M413 101L372 0L278 107Z" fill="#58c894" stroke="#58c894"/><path d="M132 99L174 118L213 0Z" fill="#4eb982" stroke="#4eb982"/><path d="M278 107L174 118L218 226Z" fill="#4eb982" stroke="#4eb982"/><path d="M371 596L489 606L424 539Z" fill="#005712" stroke="#005712"/><path d="M174 118L88 232L218 226Z" fill="#4eb982" stroke="#4eb982"/><path d="M107 317L0 371L95 402Z" fill="#4eb982" stroke="#4eb982"/><path d="M0 520L96 491L95 402Z" fill="#4eb982" stroke="#4eb982"/><path d="M95 402L96 491L229 475Z" fill="#0e6422" stroke="#0e6422"/><path d="M631 218L584 81L477 215Z" fill="#6ee7b7" stroke="#6ee7b7"/><path d="M709 272L680 204L631 218Z" fill="#2f8e51" stroke="#2f8e51"/><path d="M631 218L702 111L584 81Z" fill="#005712" stroke="#005712"/><path d="M497 0L413 101L500 66Z" fill="#43ab72" stroke="#43ab72"/><path d="M497 0L372 0L413 101Z" fill="#58c894" stroke="#58c894"/><path d="M560 523L663 500L638 408Z" fill="#4eb982" stroke="#4eb982"/><path d="M638 408L709 272L570 269Z" fill="#1a7232" stroke="#1a7232"/><path d="M572 627L663 500L560 523Z" fill="#005712" stroke="#005712"/><path d="M213 0L174 118L278 107Z" fill="#005712" stroke="#005712"/><path d="M174 118L132 99L88 232Z" fill="#4eb982" stroke="#4eb982"/><path d="M96 491L202 617L229 475Z" fill="#399c61" stroke="#399c61"/><path d="M312 574L316 720L371 596Z" fill="#0e6422" stroke="#0e6422"/><path d="M515 720L572 627L489 606Z" fill="#43ab72" stroke="#43ab72"/><path d="M776 328L709 272L638 408Z" fill="#43ab72" stroke="#43ab72"/><path d="M372 0L284 0L278 107Z" fill="#005712" stroke="#005712"/><path d="M584 81L497 0L500 66Z" fill="#43ab72" stroke="#43ab72"/><path d="M663 500L711 439L638 408Z" fill="#2f8e51" stroke="#2f8e51"/><path d="M381 732L489 606L371 596Z" fill="#58c894" stroke="#58c894"/><path d="M489 606L572 627L560 523Z" fill="#63d8a5" stroke="#63d8a5"/><path d="M663 500L827 518L711 439Z" fill="#43ab72" stroke="#43ab72"/><path d="M284 0L213 0L278 107Z" fill="#43ab72" stroke="#43ab72"/><path d="M88 232L0 331L107 317Z" fill="#1a7232" stroke="#1a7232"/><path d="M0 203L0 331L88 232Z" fill="#4eb982" stroke="#4eb982"/><path d="M0 331L0 371L107 317Z" fill="#258041" stroke="#258041"/><path d="M680 204L702 111L631 218Z" fill="#58c894" stroke="#58c894"/><path d="M584 81L639 0L497 0Z" fill="#6ee7b7" stroke="#6ee7b7"/><path d="M782 237L702 111L680 204Z" fill="#1a7232" stroke="#1a7232"/><path d="M96 491L76 584L202 617Z" fill="#2f8e51" stroke="#2f8e51"/><path d="M0 520L76 584L96 491Z" fill="#258041" stroke="#258041"/><path d="M193 688L316 720L202 617Z" fill="#43ab72" stroke="#43ab72"/><path d="M202 617L316 720L312 574Z" fill="#1a7232" stroke="#1a7232"/><path d="M0 97L0 203L132 99Z" fill="#63d8a5" stroke="#63d8a5"/><path d="M132 99L0 203L88 232Z" fill="#6ee7b7" stroke="#6ee7b7"/><path d="M711 439L776 328L638 408Z" fill="#6ee7b7" stroke="#6ee7b7"/><path d="M709 272L782 237L680 204Z" fill="#2f8e51" stroke="#2f8e51"/><path d="M136 692L193 688L202 617Z" fill="#258041" stroke="#258041"/><path d="M316 720L381 732L371 596Z" fill="#0e6422" stroke="#0e6422"/><path d="M381 732L515 720L489 606Z" fill="#2f8e51" stroke="#2f8e51"/><path d="M572 627L721 618L663 500Z" fill="#43ab72" stroke="#43ab72"/><path d="M776 328L782 237L709 272Z" fill="#0e6422" stroke="#0e6422"/><path d="M515 720L591 690L572 627Z" fill="#258041" stroke="#258041"/><path d="M711 439L818 425L776 328Z" fill="#4eb982" stroke="#4eb982"/><path d="M0 371L0 520L95 402Z" fill="#6ee7b7" stroke="#6ee7b7"/><path d="M76 584L136 692L202 617Z" fill="#399c61" stroke="#399c61"/><path d="M705 0L639 0L702 111Z" fill="#0e6422" stroke="#0e6422"/><path d="M702 111L639 0L584 81Z" fill="#258041" stroke="#258041"/><path d="M0 674L136 692L76 584Z" fill="#005712" stroke="#005712"/><path d="M221 805L315 820L316 720Z" fill="#4eb982" stroke="#4eb982"/><path d="M430 791L478 768L381 732Z" fill="#0e6422" stroke="#0e6422"/><path d="M75 0L0 97L132 99Z" fill="#43ab72" stroke="#43ab72"/><path d="M0 520L0 565L76 584Z" fill="#63d8a5" stroke="#63d8a5"/><path d="M213 0L75 0L132 99Z" fill="#4eb982" stroke="#4eb982"/><path d="M705 668L721 618L572 627Z" fill="#63d8a5" stroke="#63d8a5"/><path d="M430 791L381 732L315 820Z" fill="#0e6422" stroke="#0e6422"/><path d="M381 732L478 768L515 720Z" fill="#63d8a5" stroke="#63d8a5"/><path d="M515 720L581 794L591 690Z" fill="#0e6422" stroke="#0e6422"/><path d="M591 690L705 668L572 627Z" fill="#399c61" stroke="#399c61"/><path d="M827 518L818 425L711 439Z" fill="#399c61" stroke="#399c61"/><path d="M776 328L900 301L782 237Z" fill="#43ab72" stroke="#43ab72"/><path d="M315 820L381 732L316 720Z" fill="#005712" stroke="#005712"/><path d="M776 76L705 0L702 111Z" fill="#58c894" stroke="#58c894"/><path d="M686 793L705 668L591 690Z" fill="#6ee7b7" stroke="#6ee7b7"/><path d="M721 618L827 518L663 500Z" fill="#2f8e51" stroke="#2f8e51"/><path d="M581 794L515 720L478 768Z" fill="#4eb982" stroke="#4eb982"/><path d="M900 194L776 76L782 237Z" fill="#63d8a5" stroke="#63d8a5"/><path d="M782 237L776 76L702 111Z" fill="#4eb982" stroke="#4eb982"/><path d="M812 637L827 518L721 618Z" fill="#2f8e51" stroke="#2f8e51"/><path d="M221 805L316 720L193 688Z" fill="#43ab72" stroke="#43ab72"/><path d="M75 0L0 0L0 97Z" fill="#005712" stroke="#005712"/><path d="M106 764L193 688L136 692Z" fill="#005712" stroke="#005712"/><path d="M106 764L221 805L193 688Z" fill="#0e6422" stroke="#0e6422"/><path d="M529 900L581 794L478 768Z" fill="#6ee7b7" stroke="#6ee7b7"/><path d="M529 900L478 768L430 791Z" fill="#258041" stroke="#258041"/><path d="M0 565L0 674L76 584Z" fill="#63d8a5" stroke="#63d8a5"/><path d="M0 674L106 764L136 692Z" fill="#43ab72" stroke="#43ab72"/><path d="M900 378L900 301L776 328Z" fill="#58c894" stroke="#58c894"/><path d="M900 378L776 328L818 425Z" fill="#0e6422" stroke="#0e6422"/><path d="M900 518L900 378L818 425Z" fill="#2f8e51" stroke="#2f8e51"/><path d="M803 703L812 637L705 668Z" fill="#2f8e51" stroke="#2f8e51"/><path d="M705 668L812 637L721 618Z" fill="#0e6422" stroke="#0e6422"/><path d="M827 518L900 518L818 425Z" fill="#58c894" stroke="#58c894"/><path d="M900 301L900 194L782 237Z" fill="#399c61" stroke="#399c61"/><path d="M776 76L837 0L705 0Z" fill="#0e6422" stroke="#0e6422"/><path d="M900 634L900 518L827 518Z" fill="#399c61" stroke="#399c61"/><path d="M581 794L686 793L591 690Z" fill="#258041" stroke="#258041"/><path d="M585 900L686 793L581 794Z" fill="#258041" stroke="#258041"/><path d="M900 112L837 0L776 76Z" fill="#258041" stroke="#258041"/><path d="M686 793L803 703L705 668Z" fill="#43ab72" stroke="#43ab72"/><path d="M812 637L900 634L827 518Z" fill="#58c894" stroke="#58c894"/><path d="M900 194L900 112L776 76Z" fill="#1a7232" stroke="#1a7232"/><path d="M309 900L398 900L315 820Z" fill="#0e6422" stroke="#0e6422"/><path d="M315 820L398 900L430 791Z" fill="#005712" stroke="#005712"/><path d="M309 900L315 820L221 805Z" fill="#1a7232" stroke="#1a7232"/><path d="M176 900L309 900L221 805Z" fill="#4eb982" stroke="#4eb982"/><path d="M398 900L529 900L430 791Z" fill="#2f8e51" stroke="#2f8e51"/><path d="M89 900L176 900L106 764Z" fill="#399c61" stroke="#399c61"/><path d="M106 764L176 900L221 805Z" fill="#43ab72" stroke="#43ab72"/><path d="M900 711L900 634L812 637Z" fill="#1a7232" stroke="#1a7232"/><path d="M900 711L812 637L803 703Z" fill="#0e6422" stroke="#0e6422"/><path d="M529 900L585 900L581 794Z" fill="#58c894" stroke="#58c894"/><path d="M686 793L784 811L803 703Z" fill="#399c61" stroke="#399c61"/><path d="M0 674L0 812L106 764Z" fill="#0e6422" stroke="#0e6422"/><path d="M900 112L900 0L837 0Z" fill="#258041" stroke="#258041"/><path d="M704 900L784 811L686 793Z" fill="#005712" stroke="#005712"/><path d="M0 812L89 900L106 764Z" fill="#0e6422" stroke="#0e6422"/><path d="M900 811L900 711L803 703Z" fill="#63d8a5" stroke="#63d8a5"/><path d="M585 900L704 900L686 793Z" fill="#63d8a5" stroke="#63d8a5"/><path d="M784 811L900 811L803 703Z" fill="#0e6422" stroke="#0e6422"/><path d="M0 812L0 900L89 900Z" fill="#6ee7b7" stroke="#6ee7b7"/><path d="M812 900L900 811L784 811Z" fill="#4eb982" stroke="#4eb982"/><path d="M704 900L812 900L784 811Z" fill="#399c61" stroke="#399c61"/><path d="M812 900L900 900L900 811Z" fill="#0e6422" stroke="#0e6422"/></g></svg>