<svg xmlns="http://www.w3.org/2000/svg" xmlns:xlink="http://www.w3.org/1999/xlink" id="visual" viewBox="0 0 900 150" width="900" height="150" version="1.1"><rect x="0" y="0" width="900" height="150" fill="#6ee7b7"/><path d="M0 65L129 65L129 66L257 66L257 83L386 83L386 79L514 79L514 94L643 94L643 70L771 70L771 72L900 72L900 74L900 151L900 151L771 151L771 151L643 151L643 151L514 151L514 151L386 151L386 151L257 151L257 151L129 151L129 151L0 151Z" fill="#68b7ab"/><path d="M0 103L129 103L129 91L257 91L257 88L386 88L386 90L514 90L514 111L643 111L643 105L771 105L771 115L900 115L900 97L900 151L900 151L771 151L771 151L643 151L643 151L514 151L514 151L386 151L386 151L257 151L257 151L129 151L129 151L0 151Z" fill="#378a93"/><path d="M0 113L129 113L129 128L257 128L257 110L386 110L386 119L514 119L514 122L643 122L643 115L771 115L771 121L900 121L900 115L900 151L900 151L771 151L771 151L643 151L643 151L514 151L514 151L386 151L386 151L257 151L257 151L129 151L129 151L0 151Z" fill="#155e75"/></svg>